<svg width="32" height="32" viewBox="0 0 32 32" fill="none" xmlns="http://www.w3.org/2000/svg">
  <!-- Background com gradiente mais vibrante -->
  <rect width="32" height="32" rx="6" fill="url(#gradient)"/>
  
  <!-- Redesenhando logo mais robusta e profissional -->
  
  <!-- Círculo externo de sincronização -->
  <circle cx="16" cy="16" r="11" stroke="white" stroke-width="1.2" fill="none" opacity="0.2"/>
  
  <!-- Seta superior (Sync) - Mais grossa e definida -->
  <path d="M 16 5 A 11 11 0 0 1 27 16" 
        stroke="white" 
        stroke-width="3.5" 
        stroke-linecap="round"
        fill="none"/>
  <path d="M 27 16 L 23.5 13.5 M 27 16 L 24.5 19" 
        stroke="white" 
        stroke-width="3" 
        stroke-linecap="round"
        stroke-linejoin="round"/>
  
  <!-- Seta inferior (Sync) - Mais grossa e definida -->
  <path d="M 16 27 A 11 11 0 0 1 5 16" 
        stroke="white" 
        stroke-width="3.5" 
        stroke-linecap="round"
        fill="none"/>
  <path d="M 5 16 L 8.5 18.5 M 5 16 L 7.5 13" 
        stroke="white" 
        stroke-width="3" 
        stroke-linecap="round"
        stroke-linejoin="round"/>
  
  <!-- Ícone de documento/regras no centro -->
  <g opacity="1">
    <!-- Retângulo representando documento -->
    <rect x="11" y="11" width="10" height="10" rx="1.5" fill="white" opacity="0.95"/>
    
    <!-- Linhas representando código/regras -->
    <line x1="12.5" y1="13.5" x2="18" y2="13.5" stroke="#2563eb" stroke-width="1.2" stroke-linecap="round"/>
    <line x1="12.5" y1="16" x2="19.5" y2="16" stroke="#2563eb" stroke-width="1.2" stroke-linecap="round"/>
    <line x1="12.5" y1="18.5" x2="17" y2="18.5" stroke="#2563eb" stroke-width="1.2" stroke-linecap="round"/>
  </g>
  
  <defs>
    <linearGradient id="gradient" x1="0" y1="0" x2="32" y2="32" gradientUnits="userSpaceOnUse">
      <stop offset="0%" stop-color="#3b82f6"/>
      <stop offset="50%" stop-color="#2563eb"/>
      <stop offset="100%" stop-color="#1d4ed8"/>
    </linearGradient>
  </defs>
</svg>
